<?xml version="1.0" encoding="UTF-8" standalone="no"?>
<!-- Created with Inkscape (http://www.inkscape.org/) -->

<svg
   id="svg2"
   version="1.1"
   inkscape:version="1.4 (86a8ad7, 2024-10-11)"
   xml:space="preserve"
   width="2010.527"
   height="2153.5549"
   viewBox="0 0 2010.527 2153.555"
   sodipodi:docname="lime.svg"
   inkscape:export-filename="lime.png"
   inkscape:export-xdpi="90"
   inkscape:export-ydpi="90"
   xmlns:inkscape="http://www.inkscape.org/namespaces/inkscape"
   xmlns:sodipodi="http://sodipodi.sourceforge.net/DTD/sodipodi-0.dtd"
   xmlns:xlink="http://www.w3.org/1999/xlink"
   xmlns="http://www.w3.org/2000/svg"
   xmlns:svg="http://www.w3.org/2000/svg"
   xmlns:rdf="http://www.w3.org/1999/02/22-rdf-syntax-ns#"
   xmlns:cc="http://creativecommons.org/ns#"
   xmlns:dc="http://purl.org/dc/elements/1.1/"><metadata
     id="metadata8"><rdf:RDF><cc:Work
         rdf:about=""><dc:format>image/svg+xml</dc:format><dc:type
           rdf:resource="http://purl.org/dc/dcmitype/StillImage" /></cc:Work></rdf:RDF></metadata><defs
     id="defs6"><linearGradient
       inkscape:collect="always"
       id="linearGradient4316"><stop
         style="stop-color:#ff9a20;stop-opacity:1"
         offset="0"
         id="stop4318" /><stop
         id="stop4324"
         offset="0.50968331"
         style="stop-color:#ff2020;stop-opacity:1" /><stop
         style="stop-color:#ff9920;stop-opacity:1"
         offset="1"
         id="stop4320" /></linearGradient><clipPath
       clipPathUnits="userSpaceOnUse"
       id="clipPath16"><path
         d="M 0,2400 H 2400 V 0 H 0 Z"
         id="path18"
         inkscape:connector-curvature="0" /></clipPath><clipPath
       clipPathUnits="userSpaceOnUse"
       id="clipPath34"><path
         d="M 0,2400 H 2400 V 0 H 0 Z"
         id="path36"
         inkscape:connector-curvature="0" /></clipPath><clipPath
       clipPathUnits="userSpaceOnUse"
       id="clipPath56"><path
         d="M 0,2400 H 2400 V 0 H 0 Z"
         id="path58"
         inkscape:connector-curvature="0" /></clipPath><clipPath
       clipPathUnits="userSpaceOnUse"
       id="clipPath74"><path
         d="M 0,2400 H 2400 V 0 H 0 Z"
         id="path76"
         inkscape:connector-curvature="0" /></clipPath><linearGradient
       inkscape:collect="always"
       xlink:href="#linearGradient4316"
       id="linearGradient4322"
       x1="2233.6833"
       y1="-2101.1331"
       x2="453.97421"
       y2="-2097.6116"
       gradientUnits="userSpaceOnUse" /><clipPath
       clipPathUnits="userSpaceOnUse"
       id="clipPath4209"><g
         style="fill:#ff0000;fill-opacity:1"
         clip-path="url(#clipPath16)"
         id="g4211"
         transform="matrix(2.0635153,0,0,-2.151038,-169.69721,2054.9341)"><g
           style="fill:#ff0000;fill-opacity:1"
           transform="translate(669.7393,1603.146)"
           id="g4213"><path
             inkscape:connector-curvature="0"
             id="path4215"
             style="fill:#ff0000;fill-opacity:1;fill-rule:nonzero;stroke:none"
             d="M 0,0 -19.792,9.871 3.162,14.913 24.615,4.216 Z M 493.46,260.286 C 433.151,169.83 293.361,115.006 183.714,97.188 157.418,27.065 116.201,-33.374 48.226,-54.819 l -5.551,40.711 22.673,7.817 18.465,-3.62 -11.752,30.224 H 36.8 l -7.558,15.952 h -79.756 l -20.045,-89.081 c -64.423,23.033 -103.965,81.971 -129.483,150.007 -109.646,17.815 -249.437,72.639 -309.746,163.099 -8.857,-26.08 -11.448,-51.575 -9.167,-76.248 41.26,-45.857 98.436,-82.05 151.715,-88.222 -41.881,-3.104 -88.583,2.159 -132.428,19.461 9.607,-20.508 22.254,-40.127 37.06,-58.685 41.245,-13.781 87.673,-19.858 151.563,-8.749 -35.551,-20.146 -75.05,-30.057 -113.213,-32.836 16.769,-15.938 34.828,-30.78 53.452,-44.357 27.841,-1.834 56.989,3.364 84.859,23.055 -9.817,-17.872 -24.788,-36.914 -46.407,-48.911 12.647,-7.832 25.3,-15.094 37.745,-21.67 5.89,-3.11 11.708,-6.243 17.526,-9.376 28.151,5.572 42.61,19.8 52.448,33.861 2.909,-17.432 -6.496,-37.015 -23.416,-49.77 102.27,-57.105 189.778,-117.024 239.887,-170.707 50.11,53.683 137.618,113.598 239.888,170.707 -16.92,12.755 -26.326,32.338 -23.417,49.766 9.839,-14.057 24.297,-28.288 52.449,-33.861 5.818,3.137 11.636,6.27 17.525,9.38 12.446,6.573 25.099,13.834 37.745,21.67 -21.618,11.997 -36.589,31.035 -46.406,48.911 27.87,-19.695 57.018,-24.892 84.859,-23.055 18.623,13.577 36.683,28.415 53.452,44.357 -38.163,2.779 -77.662,12.69 -113.213,32.836 63.889,-11.109 110.318,-5.035 151.563,8.749 14.805,18.558 27.451,38.177 37.059,58.681 -43.844,-17.302 -90.546,-22.565 -132.427,-19.461 53.278,6.176 110.455,42.365 151.715,88.226 2.279,24.669 -0.311,50.165 -9.168,76.244" /></g></g></clipPath><linearGradient
       x1="0"
       y1="128"
       x2="128"
       y2="0"
       id="gradient"
       gradientUnits="userSpaceOnUse"><stop
         id="start"
         style="stop-color:#dbdbdb;stop-opacity:1"
         offset="0" /><stop
         id="stop"
         style="stop-color:#757575;stop-opacity:1"
         offset="1" /></linearGradient></defs><sodipodi:namedview
     pagecolor="#ffffff"
     bordercolor="#666666"
     borderopacity="1"
     objecttolerance="10"
     gridtolerance="10"
     guidetolerance="10"
     inkscape:pageopacity="0"
     inkscape:pageshadow="2"
     inkscape:window-width="3840"
     inkscape:window-height="2126"
     id="namedview4"
     showgrid="false"
     inkscape:zoom="0.62933332"
     inkscape:cx="1022.5106"
     inkscape:cy="1055.8793"
     inkscape:window-x="-11"
     inkscape:window-y="-11"
     inkscape:window-maximized="1"
     inkscape:current-layer="layer1"
     fit-margin-top="100"
     fit-margin-left="100"
     fit-margin-right="100"
     fit-margin-bottom="100"
     showguides="false"
     inkscape:showpageshadow="2"
     inkscape:pagecheckerboard="0"
     inkscape:deskcolor="#d1d1d1" /><g
     id="g10"
     inkscape:groupmode="layer"
     inkscape:label="eagle"
     transform="matrix(1.25,0,0,-1.25,1315.7404,3286.8651)"
     style="display:inline" /><g
     inkscape:groupmode="layer"
     id="layer1"
     inkscape:label="title"
     style="display:inline"
     transform="translate(1340.529,479.48625)"><text
   transform="scale(0.9794445,1.0209869)"
   style="font-variant:normal;font-weight:normal;font-stretch:normal;font-size:26.569px;line-height:0%;font-family:Times;-inkscape-font-specification:Times-Roman;writing-mode:lr-tb;display:inline;fill:#54b900;fill-opacity:1;fill-rule:nonzero;stroke:none;stroke-width:2.21409"
   id="text24"
   x="-1281.0583"
   y="1540.7466"
   inkscape:export-xdpi="90"
   inkscape:export-ydpi="90"><tspan
     x="-1281.0583"
     sodipodi:role="line"
     id="tspan28"
     y="1540.7466"
     style="font-style:normal;font-variant:normal;font-weight:normal;font-stretch:normal;font-size:783.667px;line-height:1.25;font-family:Birdman;-inkscape-font-specification:Birdman;fill:#54b900;fill-opacity:1;stroke-width:2.21409">LIME</tspan></text>


<g
   id="g1"
   transform="matrix(11.631132,0,0,11.631132,-1076.5037,-449.03807)"><circle
     style="opacity:1;fill:#ffffff;fill-opacity:1;stroke:none;stroke-width:2.067;stroke-miterlimit:4;stroke-dasharray:none;stroke-dashoffset:0;stroke-opacity:1"
     id="path3338"
     cx="63.593224"
     cy="64.406776"
     r="56.81356" /><path
     d="m 63.728813,5.9797984 c -32.180683,0 -58.2913885,26.1107066 -58.2913885,58.2913896 0,32.180685 26.1107055,58.291392 58.2913885,58.291382 32.180683,0 58.291397,-26.110697 58.291387,-58.291382 0,-32.180683 -26.110707,-58.2913896 -58.291387,-58.2913896 z m -0.152989,2.8304204 c 6.838754,0 11.140968,0.8961664 13.769621,2.6009312 1.314322,0.852381 2.189123,1.976805 2.600928,3.212909 0.411802,1.236104 0.334442,2.500251 0,3.748396 -0.733052,2.735782 -3.365615,13.001251 -7.114303,24.555823 1.192705,-2.23205 2.360754,-4.41889 3.518903,-6.502319 2.348823,-4.225371 4.562154,-8.015954 6.349324,-10.939198 1.787169,-2.923247 2.963852,-4.799803 3.901393,-5.737344 0.622983,-0.62298 1.328762,-1.326124 2.218437,-1.835948 0.889677,-0.509825 2.02088,-0.760008 3.289409,-0.535485 2.537058,0.449048 5.50789,2.447981 10.327214,7.267298 4.83571,4.835721 7.226,8.486999 7.87928,11.55118 0.32664,1.532096 0.20039,2.965641 -0.38249,4.130889 -0.58287,1.165247 -1.55836,2.031336 -2.67743,2.677425 -2.46449,1.422881 -11.672196,6.781097 -22.56687,12.31616 2.454938,-0.746762 4.866476,-1.478483 7.190802,-2.141942 4.648655,-1.326916 8.908898,-2.409585 12.239658,-3.212911 3.33076,-0.803325 5.55894,-1.300464 6.88481,-1.300464 0.88103,0 1.76432,-0.03908 2.75393,0.229483 0.9896,0.268596 2.0157,0.856698 2.75391,1.912448 1.47646,2.111497 2.14195,5.653607 2.14195,12.469156 0,6.838743 -0.89616,11.140972 -2.60094,13.769618 -0.85238,1.314325 -1.97679,2.189126 -3.21289,2.600931 -1.23611,0.411801 -2.50027,0.334441 -3.7484,0 -2.67408,-0.716513 -12.5588,-3.214892 -23.790847,-6.808313 1.93151,1.03746 3.847522,2.051916 5.660844,3.059914 4.225372,2.348825 8.015954,4.562153 10.939193,6.349327 2.92324,1.787171 4.8763,3.04034 5.81384,3.977888 0.62298,0.622981 1.32613,1.252267 1.83596,2.141941 0.50982,0.889678 0.75999,2.097377 0.53548,3.365906 -0.44906,2.53706 -2.52449,5.507893 -7.3438,10.327202 -4.835728,4.83572 -8.486997,7.226 -11.551179,7.87928 -1.532091,0.32666 -2.889142,0.12391 -4.054386,-0.45897 -1.165245,-0.58287 -2.107835,-1.55837 -2.753925,-2.67744 -1.235937,-2.14069 -5.459443,-9.38093 -10.174218,-18.359479 3.0244,9.7194 5.173181,17.880969 5.813837,20.271939 0.334442,1.24815 0.335306,2.58879 -0.07649,3.82489 -0.411805,1.23611 -1.286602,2.28403 -2.600927,3.13641 -2.628653,1.70476 -6.854369,2.60093 -13.693121,2.60093 -6.815538,0 -10.357662,-0.589 -12.469157,-2.06545 -1.055746,-0.73822 -1.720348,-1.76432 -1.988944,-2.75392 -0.2686,-0.9896 -0.229483,-1.94939 -0.229483,-2.83042 0,-1.32588 0.497138,-3.55404 1.300463,-6.88481 0.803325,-3.33076 1.962493,-7.590998 3.289409,-12.239655 0.663459,-2.324327 1.40235,-4.735866 2.141941,-7.190802 -5.523853,10.867309 -10.89599,20.030577 -12.316159,22.490367 -0.64608,1.11907 -1.512182,2.09457 -2.677426,2.67744 -1.165245,0.58287 -2.598791,0.70912 -4.130887,0.38248 -3.064202,-0.65327 -6.715488,-3.04355 -11.551201,-7.87927 -4.819324,-4.819313 -6.818248,-7.79015 -7.267299,-10.327208 -0.224526,-1.268532 0.02566,-2.399729 0.535485,-3.28941 0.509824,-0.889677 1.212964,-1.595454 1.83595,-2.218437 0.937538,-0.937538 2.814094,-2.114224 5.737341,-3.901393 2.923246,-1.787168 6.713832,-4.0005 10.939198,-6.349326 1.89075,-1.051038 3.872843,-2.130863 5.890337,-3.21291 -11.330886,3.656084 -21.327449,6.239749 -24.020336,6.96131 -1.248153,0.334437 -2.512293,0.411802 -3.748398,0 -1.236104,-0.411806 -2.360531,-1.363103 -3.21291,-2.677429 -1.704758,-2.628648 -2.6009285,-6.854376 -2.6009285,-13.69312 0,-6.815549 0.6654964,-10.357659 2.1419405,-12.469156 0.738223,-1.055751 1.764328,-1.720349 2.753925,-1.988946 0.989596,-0.268595 1.949391,-0.229482 2.830421,-0.229482 1.32588,0 3.477543,0.497138 6.808312,1.300462 3.33077,0.803328 7.591006,1.962492 12.239664,3.289409 3.453684,0.985825 7.115107,2.151833 10.786201,3.289411 -3.384597,-1.778576 -6.740909,-3.61643 -9.868228,-5.354862 -4.225365,-2.348823 -8.092448,-4.562158 -11.015695,-6.349326 -2.923246,-1.787169 -4.799806,-2.963864 -5.737342,-3.901393 -0.622983,-0.622983 -1.326124,-1.32876 -1.835948,-2.218437 -0.509826,-0.889678 -0.760012,-2.020878 -0.535486,-3.28941 0.449051,-2.53706 2.447972,-5.507895 7.267299,-10.327215 4.835709,-4.835721 8.486999,-7.225994 11.551183,-7.879282 1.532091,-0.326644 2.96564,-0.123869 4.130884,0.458986 1.165246,0.58287 2.031344,1.481868 2.677429,2.60093 1.409146,2.440701 6.739099,11.504482 12.239658,22.260885 -0.712727,-2.349133 -1.429845,-4.658096 -2.065441,-6.884811 -1.326919,-4.648654 -2.409587,-8.832397 -3.212914,-12.163164 -0.803323,-3.330763 -1.300461,-5.558931 -1.300461,-6.884809 0,-0.881034 -0.03908,-1.840823 0.229482,-2.830423 0.268596,-0.989597 0.856698,-2.015698 1.912446,-2.753923 2.111495,-1.4764508 5.653617,-2.1419422 12.469155,-2.1419422 z m 0,2.4479352 c -6.637641,0 -9.769077,0.811264 -11.015695,1.682953 -0.62331,0.435843 -0.844598,0.824781 -0.994471,1.376962 -0.149862,0.552179 -0.152989,1.336205 -0.152989,2.218438 0,0.484365 0.432218,2.99006 1.223966,6.272827 0.791749,3.282767 1.893298,7.5401 3.212913,12.163163 2.324398,8.143191 5.327491,17.134415 8.108773,24.785316 6.904375,-16.818677 12.492621,-37.802562 13.616609,-41.99734 0.246043,-0.918266 0.301661,-1.695561 0.0765,-2.371434 -0.225162,-0.67587 -0.736643,-1.298735 -1.682951,-1.912447 -1.892628,-1.227424 -5.778203,-2.218438 -12.392664,-2.218438 z m -25.779786,8.185274 c -0.238597,0.01431 -0.489203,0.01774 -0.764977,0.07649 -2.206202,0.470365 -5.650106,2.590176 -10.327216,7.2673 -4.693536,4.693529 -6.390198,7.528881 -6.655316,9.026753 -0.132559,0.748933 0.02152,1.186529 0.305991,1.682951 0.284472,0.496423 0.753129,0.982626 1.376962,1.606456 0.342507,0.342506 2.473732,1.833987 5.354854,3.595402 2.881119,1.761416 6.660594,3.936934 10.862698,6.272826 7.404622,4.116128 15.876826,8.413366 23.255356,11.857172 C 54.193229,44.062502 43.331878,25.190803 41.161938,21.432372 40.686616,20.609078 40.192608,20.068115 39.555481,19.749417 39.077637,19.510395 38.511824,19.400204 37.796029,19.443428 Z m 52.936536,0.305989 c -0.265069,0.05753 -0.516768,0.163747 -0.764979,0.305994 -0.496423,0.284472 -0.982621,0.753129 -1.606455,1.376961 -0.342499,0.342499 -1.833987,2.473733 -3.595399,5.354851 -1.761416,2.881118 -3.936937,6.660594 -6.272829,10.862702 -4.116125,7.404622 -8.413354,15.87682 -11.857172,23.255357 16.766285,-7.011158 35.63798,-17.872511 39.3964,-20.042448 0.82331,-0.475328 1.36427,-1.045824 1.68296,-1.682952 0.3187,-0.63713 0.46467,-1.34483 0.22949,-2.447932 -0.47037,-2.206206 -2.59019,-5.650092 -7.2673,-10.327217 -4.693536,-4.693524 -7.528888,-6.3902 -9.026751,-6.655316 -0.374466,-0.06627 -0.652906,-0.0575 -0.917976,0 z M 15.611643,51.037053 c -0.375308,0.01961 -0.718384,0.07805 -0.994473,0.152989 -0.552175,0.149861 -0.941119,0.371163 -1.376962,0.994471 -0.871686,1.246618 -1.682953,4.454545 -1.682953,11.092195 0,6.614455 0.991019,10.500039 2.218439,12.392658 0.61371,0.94631 1.236575,1.381293 1.912447,1.606455 0.675872,0.225163 1.453157,0.246042 2.371434,0 4.202276,-1.125995 25.240511,-6.771323 42.073838,-13.693114 -7.66254,-2.788202 -16.69591,-5.777891 -24.861812,-8.108775 -4.623066,-1.319614 -8.880396,-2.421162 -12.163166,-3.212911 -3.282768,-0.791749 -5.788453,-1.223968 -6.272826,-1.223968 -0.441114,0 -0.848657,-0.01961 -1.223966,0 z m 95.392857,0.0765 c -0.48436,0 -3.06656,0.432215 -6.34932,1.223964 -3.28276,0.791752 -7.463601,1.8933 -12.086666,3.212911 -8.123222,2.318704 -17.144734,5.333573 -24.785312,8.108778 16.809103,6.893134 37.730868,12.570426 41.920838,13.693121 0.91826,0.246043 1.69557,0.225164 2.37143,0 0.67588,-0.225164 1.29875,-0.660147 1.91245,-1.606455 1.22743,-1.892623 2.21843,-5.854702 2.21843,-12.469156 0,-6.637651 -0.81125,-9.769081 -1.68294,-11.015695 -0.43585,-0.623308 -0.82478,-0.844603 -1.37697,-0.994471 -0.55217,-0.149864 -1.25969,-0.15299 -2.14194,-0.15299 z M 61.357379,66.183632 c -7.390802,3.446934 -15.907901,7.730299 -23.331853,11.857171 -4.202107,2.335895 -7.981584,4.511414 -10.862702,6.272827 -2.88112,1.761415 -5.012348,3.2529 -5.354852,3.595402 -0.623834,0.623831 -1.092489,1.186529 -1.376962,1.682952 -0.284473,0.496425 -0.438551,0.934018 -0.305991,1.682954 0.265118,1.497871 1.961783,4.256722 6.655315,8.950242 4.677114,4.67713 8.121012,6.79694 10.327216,7.2673 1.103101,0.23519 1.810809,0.0892 2.447931,-0.22947 0.637125,-0.31871 1.207633,-0.85967 1.682955,-1.68296 2.173653,-3.76486 13.10961,-22.608447 20.118943,-39.396406 z m 5.201855,0.0765 c 7.011316,16.764316 17.796337,35.562048 19.96595,39.319918 0.475331,0.82329 1.045825,1.44074 1.682951,1.75944 0.637128,0.31871 1.42133,0.38819 2.524432,0.15299 2.206202,-0.47036 5.650083,-2.51368 10.327213,-7.1908 4.69351,-4.693525 6.31371,-7.528874 6.57882,-9.026746 0.13256,-0.748935 0.0549,-1.18653 -0.22949,-1.682955 -0.28448,-0.496407 -0.82964,-0.982607 -1.45347,-1.606438 -0.34248,-0.34249 -2.39724,-1.833985 -5.27835,-3.595401 C 97.796174,82.628719 94.016701,80.376702 89.814591,78.040807 82.428163,73.934799 73.926142,69.700947 66.559234,66.260134 Z m -2.600928,1.14747 c -2.781284,7.6509 -5.784377,16.642124 -8.108774,24.785314 -1.319615,4.623065 -2.421162,8.880394 -3.212914,12.163164 -0.791747,3.28277 -1.223965,5.78846 -1.223965,6.27283 0,0.88221 0.0032,1.58974 0.152989,2.14194 0.149862,0.55217 0.371162,0.94112 0.994472,1.37696 1.246616,0.87168 4.454556,1.68295 11.092194,1.68295 6.614462,0 10.500035,-0.91453 12.392656,-2.14194 0.946311,-0.61372 1.381292,-1.23658 1.606455,-1.91244 0.225164,-0.67589 0.246043,-1.52967 0,-2.44794 -1.122753,-4.19017 -6.799422,-25.111246 -13.693121,-41.920842 z"
     style="fill:#aad400;fill-opacity:1;stroke:none"
     id="path15"
     inkscape:connector-curvature="0" /></g></g></svg>
